<?xml version="1.0" encoding="UTF-8"?>
<svg width="512pt" height="512pt" version="1.1" viewBox="0 0 512 512" xmlns="http://www.w3.org/2000/svg">
 <path d="m437.33 320h-362.66c-41.176 0-74.668 33.492-74.668 74.668v21.332c0 41.18 33.492 74.668 74.668 74.668h362.67c41.18 0 74.668-33.488 74.668-74.668v-21.332c-0.003906-41.176-33.492-74.668-74.672-74.668zm-16 117.33c-17.648 0-32-14.352-32-32 0-17.648 14.352-32 32-32 17.648 0 32 14.352 32 32 0 17.648-14.352 32-32 32z" fill="#00449e"/>
 <path d="m432 405.33c0 5.8945-4.7734 10.668-10.668 10.668s-10.668-4.7734-10.668-10.668 4.7734-10.668 10.668-10.668c5.8945 0.003907 10.668 4.7773 10.668 10.668z" fill="#00449e"/>
 <path d="m437.33 298.67c22.633 0 43.113 8.1914 59.562 21.312l-30.105-227.31c-5.3711-40.66-40.379-71.34-81.402-71.34h-258.9c-40.918 0-75.926 30.594-81.387 71.148l-30.719 228.11c16.531-13.5 37.355-21.926 60.309-21.926zm-288-192h197.95l-34.367-34.219c-4.1758-4.1367-4.2031-10.922-0.042969-15.082 4.1328-4.1602 10.922-4.2227 15.082-0.042969l53.355 53.098c2.0039 2.0039 3.1367 4.7344 3.1367 7.5508s-1.1523 5.5664-3.1367 7.5508l-53.355 53.098c-2.0742 2.0898-4.8008 3.1133-7.5508 3.1133-2.7109 0-5.4844-1.0469-7.5508-3.1367-4.1602-4.1602-4.1367-10.922 0.042969-15.082l35.707-35.543-199.27 0.007813c-5.8867 0-10.668-4.7773-10.668-10.668 0.003907-5.8867 4.7812-10.645 10.668-10.645zm-28.863 89.109 53.332-53.098c4.1602-4.1602 10.922-4.1172 15.082 0.042968 4.1602 4.1602 4.1367 10.945-0.042968 15.082l-34.348 34.219 208.18-0.003907c5.8672 0 10.668 4.7773 10.668 10.668 0 5.8867-4.8008 10.668-10.668 10.668h-209.5l35.691 35.543c4.1797 4.1602 4.2031 10.922 0.042969 15.082-2.0703 2.0977-4.8203 3.1367-7.5508 3.1367-2.7109 0-5.4414-1.0391-7.5312-3.1133l-53.332-53.098c-2.0039-2.0039-3.1367-4.7344-3.1367-7.5508 0-2.8203 1.1094-5.5742 3.1133-7.5781z" fill="#00449e"/>
</svg>
